<mxfile host="app.diagrams.net" modified="2023-02-24T09:19:16.996Z" agent="5.0 (Macintosh; Intel Mac OS X 10_15_7) AppleWebKit/605.1.15 (KHTML, like Gecko) Version/16.2 Safari/605.1.15" etag="i6vkQWZZOsfCYlmfNYMs" version="20.8.23" type="github">
  <diagram name="第1頁" id="IL3iJkp3xKeJsIAu66Rl">
    <mxGraphModel dx="970" dy="507" grid="0" gridSize="10" guides="1" tooltips="1" connect="1" arrows="1" fold="1" page="1" pageScale="1" pageWidth="827" pageHeight="1169" math="0" shadow="0">
      <root>
        <mxCell id="0" />
        <mxCell id="1" parent="0" />
        <mxCell id="zkDPbRPJDWIZ1ej-2Ygc-2" value="Follow Button" style="rounded=0;whiteSpace=wrap;html=1;" parent="1" vertex="1">
          <mxGeometry x="99" y="400" width="91" height="40" as="geometry" />
        </mxCell>
        <mxCell id="zkDPbRPJDWIZ1ej-2Ygc-3" value="Button variation" style="shape=card;whiteSpace=wrap;html=1;" parent="1" vertex="1">
          <mxGeometry x="570" y="386.5" width="95" height="67" as="geometry" />
        </mxCell>
        <mxCell id="8GjfoLXpLdCO_-TRHif1-1" style="edgeStyle=orthogonalEdgeStyle;rounded=0;orthogonalLoop=1;jettySize=auto;html=1;exitX=0;exitY=0;exitDx=0;exitDy=0;entryX=0.5;entryY=1;entryDx=0;entryDy=0;fontSize=11;" edge="1" parent="1" source="zkDPbRPJDWIZ1ej-2Ygc-4" target="zkDPbRPJDWIZ1ej-2Ygc-11">
          <mxGeometry relative="1" as="geometry">
            <Array as="points">
              <mxPoint x="326" y="392" />
            </Array>
          </mxGeometry>
        </mxCell>
        <mxCell id="8GjfoLXpLdCO_-TRHif1-2" style="edgeStyle=orthogonalEdgeStyle;rounded=0;orthogonalLoop=1;jettySize=auto;html=1;exitX=1;exitY=0;exitDx=0;exitDy=0;entryX=0.5;entryY=1;entryDx=0;entryDy=0;fontSize=11;" edge="1" parent="1" source="zkDPbRPJDWIZ1ej-2Ygc-4" target="zkDPbRPJDWIZ1ej-2Ygc-14">
          <mxGeometry relative="1" as="geometry">
            <Array as="points">
              <mxPoint x="477" y="392" />
            </Array>
          </mxGeometry>
        </mxCell>
        <mxCell id="zkDPbRPJDWIZ1ej-2Ygc-4" value="Follow system" style="ellipse;whiteSpace=wrap;html=1;aspect=fixed;" parent="1" vertex="1">
          <mxGeometry x="360" y="380" width="80" height="80" as="geometry" />
        </mxCell>
        <mxCell id="zkDPbRPJDWIZ1ej-2Ygc-5" value="" style="endArrow=classic;html=1;rounded=0;exitX=1;exitY=0.5;exitDx=0;exitDy=0;entryX=0;entryY=0.5;entryDx=0;entryDy=0;" parent="1" source="zkDPbRPJDWIZ1ej-2Ygc-2" target="zkDPbRPJDWIZ1ej-2Ygc-4" edge="1">
          <mxGeometry width="50" height="50" relative="1" as="geometry">
            <mxPoint x="410" y="470" as="sourcePoint" />
            <mxPoint x="460" y="420" as="targetPoint" />
          </mxGeometry>
        </mxCell>
        <mxCell id="zkDPbRPJDWIZ1ej-2Ygc-6" value="" style="endArrow=classic;html=1;rounded=0;entryX=-0.014;entryY=0.471;entryDx=0;entryDy=0;entryPerimeter=0;" parent="1" source="zkDPbRPJDWIZ1ej-2Ygc-4" target="zkDPbRPJDWIZ1ej-2Ygc-3" edge="1">
          <mxGeometry width="50" height="50" relative="1" as="geometry">
            <mxPoint x="410" y="470" as="sourcePoint" />
            <mxPoint x="460" y="420" as="targetPoint" />
          </mxGeometry>
        </mxCell>
        <mxCell id="zkDPbRPJDWIZ1ej-2Ygc-11" value="&lt;font style=&quot;font-size: 11px;&quot;&gt;&lt;font&gt;User entity - Following List &amp;nbsp;&lt;/font&gt;(database)&lt;/font&gt;" style="shape=partialRectangle;whiteSpace=wrap;html=1;left=0;right=0;fillColor=none;rounded=0;strokeColor=default;fontFamily=Helvetica;fontSize=12;fontColor=default;" parent="1" vertex="1">
          <mxGeometry x="266" y="314" width="120" height="40" as="geometry" />
        </mxCell>
        <mxCell id="zkDPbRPJDWIZ1ej-2Ygc-14" value="&lt;font style=&quot;font-size: 11px;&quot;&gt;&lt;font style=&quot;border-color: var(--border-color);&quot;&gt;User entity - Follower List &amp;nbsp;&lt;/font&gt;(database)&lt;/font&gt;" style="shape=partialRectangle;whiteSpace=wrap;html=1;left=0;right=0;fillColor=none;rounded=0;strokeColor=default;fontFamily=Helvetica;fontSize=12;fontColor=default;" parent="1" vertex="1">
          <mxGeometry x="417" y="314" width="120" height="40" as="geometry" />
        </mxCell>
        <mxCell id="zkDPbRPJDWIZ1ej-2Ygc-16" value="decoded current user id" style="text;html=1;align=center;verticalAlign=middle;resizable=0;points=[];autosize=1;strokeColor=none;fillColor=none;" parent="1" vertex="1">
          <mxGeometry x="212" y="462" width="144" height="26" as="geometry" />
        </mxCell>
        <mxCell id="zkDPbRPJDWIZ1ej-2Ygc-19" style="edgeStyle=orthogonalEdgeStyle;rounded=0;orthogonalLoop=1;jettySize=auto;html=1;" parent="1" source="zkDPbRPJDWIZ1ej-2Ygc-17" target="zkDPbRPJDWIZ1ej-2Ygc-4" edge="1">
          <mxGeometry relative="1" as="geometry" />
        </mxCell>
        <mxCell id="zkDPbRPJDWIZ1ej-2Ygc-17" value="Browser" style="shape=partialRectangle;whiteSpace=wrap;html=1;left=0;right=0;fillColor=none;rounded=0;strokeColor=default;fontFamily=Helvetica;fontSize=12;fontColor=default;" parent="1" vertex="1">
          <mxGeometry x="125" y="472" width="65" height="24" as="geometry" />
        </mxCell>
        <mxCell id="zkDPbRPJDWIZ1ej-2Ygc-20" value="target user id" style="text;html=1;align=center;verticalAlign=middle;resizable=0;points=[];autosize=1;strokeColor=none;fillColor=none;" parent="1" vertex="1">
          <mxGeometry x="228" y="397" width="90" height="30" as="geometry" />
        </mxCell>
        <mxCell id="zkDPbRPJDWIZ1ej-2Ygc-21" value="target user id" style="text;html=1;align=center;verticalAlign=middle;resizable=0;points=[];autosize=1;strokeColor=none;fillColor=none;" parent="1" vertex="1">
          <mxGeometry x="230" y="360" width="90" height="30" as="geometry" />
        </mxCell>
        <mxCell id="zkDPbRPJDWIZ1ej-2Ygc-22" value="user id&amp;nbsp;" style="text;html=1;align=center;verticalAlign=middle;resizable=0;points=[];autosize=1;strokeColor=none;fillColor=none;" parent="1" vertex="1">
          <mxGeometry x="471" y="360" width="60" height="30" as="geometry" />
        </mxCell>
      </root>
    </mxGraphModel>
  </diagram>
</mxfile>
